<?xml version="1.0" standalone="no"?>
<!DOCTYPE svg PUBLIC "-//W3C//DTD SVG 20010904//EN"
 "http://www.w3.org/TR/2001/REC-SVG-20010904/DTD/svg10.dtd">
<svg version="1.0" xmlns="http://www.w3.org/2000/svg"
 width="1024.000000pt" height="1024.000000pt" viewBox="0 0 1024.000000 1024.000000"
 preserveAspectRatio="xMidYMid meet">
<metadata>
Created by potrace 1.11, written by Peter Selinger 2001-2013
</metadata>
<g transform="translate(0.000000,1024.000000) scale(0.100000,-0.100000)"
fill="#000000" stroke="none">
<path d="M2910 10221 c-60 -17 -150 -66 -191 -103 -47 -42 -107 -128 -124
-178 -1 -3 -5 -12 -8 -20 -12 -29 -24 -95 -22 -132 0 -21 -3 -38 -8 -38 -4 0
-3 -8 2 -18 7 -13 7 -22 0 -29 -8 -8 -7 -13 0 -17 8 -5 8 -13 1 -27 -8 -13 -7
-19 0 -19 8 0 8 -6 0 -20 -8 -14 -8 -20 0 -20 8 0 8 -6 0 -20 -8 -14 -8 -20 0
-20 8 0 8 -6 0 -20 -8 -14 -8 -20 0 -20 8 0 8 -6 0 -20 -8 -14 -8 -20 0 -20 7
0 8 -6 1 -19 -6 -10 -8 -21 -4 -25 3 -3 7 -25 9 -48 2 -24 5 -52 8 -63 7 -34
39 -110 49 -116 5 -3 9 -10 9 -15 0 -5 9 -22 21 -38 83 -110 211 -181 344
-192 31 -3 59 -7 63 -9 3 -2 12 0 20 5 7 4 24 4 36 0 13 -5 26 -6 28 -1 3 5
16 6 30 4 18 -4 23 -10 21 -29 -1 -13 1 -24 4 -24 8 0 6 -53 -2 -66 -3 -6 -2
-16 3 -24 5 -9 5 -19 -1 -26 -7 -8 -6 -14 1 -19 6 -4 7 -12 1 -24 -6 -10 -6
-23 -1 -31 5 -8 5 -21 -1 -31 -6 -11 -5 -20 1 -24 6 -4 6 -15 0 -30 -6 -17 -6
-25 1 -25 7 0 7 -6 0 -17 -6 -11 -6 -24 0 -35 6 -10 5 -19 -1 -23 -7 -4 -7
-12 0 -25 7 -13 7 -21 0 -25 -7 -4 -7 -13 0 -24 6 -12 5 -22 -1 -28 -7 -7 -7
-13 -1 -17 7 -4 7 -17 2 -36 -5 -18 -5 -30 0 -30 6 0 6 -10 0 -25 -6 -15 -6
-26 0 -30 6 -4 7 -13 1 -24 -6 -10 -6 -23 -1 -31 5 -8 5 -21 -1 -31 -6 -11 -5
-20 1 -24 7 -4 7 -12 0 -25 -7 -13 -7 -21 0 -25 6 -4 7 -13 1 -24 -6 -10 -6
-23 -1 -31 5 -8 5 -21 -1 -31 -6 -11 -5 -20 1 -24 6 -4 6 -15 0 -30 -6 -16 -6
-25 1 -25 6 0 6 -7 -1 -20 -7 -13 -7 -20 -1 -20 7 0 7 -9 1 -25 -6 -15 -6 -26
0 -30 6 -4 7 -13 1 -23 -6 -11 -6 -24 0 -34 6 -10 6 -19 0 -23 -7 -3 -7 -15
-1 -30 6 -15 6 -27 0 -30 -6 -4 -7 -13 -1 -24 6 -10 6 -23 1 -31 -5 -8 -5 -21
1 -31 6 -11 5 -20 -1 -24 -6 -3 -6 -15 0 -30 6 -15 6 -27 0 -30 -6 -4 -7 -13
-1 -23 6 -11 6 -24 0 -34 -6 -10 -6 -19 0 -23 7 -4 7 -15 1 -30 -6 -16 -6 -25
1 -25 6 0 6 -7 -1 -20 -7 -13 -7 -20 -1 -20 7 0 7 -9 1 -25 -6 -15 -6 -26 0
-30 6 -4 7 -13 1 -24 -6 -10 -6 -23 -1 -31 5 -8 5 -21 -1 -31 -6 -11 -5 -20 1
-24 7 -4 7 -12 0 -25 -7 -13 -7 -21 0 -25 6 -4 7 -13 1 -24 -6 -10 -6 -23 -1
-31 5 -8 5 -21 -1 -31 -6 -11 -5 -20 1 -24 6 -4 6 -15 0 -30 -6 -15 -6 -25 0
-25 5 0 5 -12 0 -29 -5 -17 -4 -33 2 -39 6 -6 6 -12 -1 -16 -8 -5 -8 -13 -1
-26 7 -13 7 -21 0 -25 -7 -4 -7 -12 0 -25 7 -13 7 -21 0 -25 -6 -4 -7 -13 -1
-23 6 -11 6 -24 0 -35 -7 -11 -7 -17 0 -17 7 0 7 -8 1 -25 -6 -15 -6 -26 0
-30 6 -4 7 -13 1 -24 -6 -10 -6 -23 -1 -31 5 -8 5 -21 -1 -31 -6 -11 -5 -20 1
-24 6 -4 6 -15 0 -30 -6 -16 -6 -25 1 -25 6 0 6 -6 0 -18 -6 -11 -6 -24 0 -34
6 -11 6 -19 -1 -23 -7 -4 -6 -14 2 -28 6 -12 10 -24 9 -27 -2 -3 -7 -13 -12
-22 -7 -12 -6 -18 1 -18 8 0 8 -6 0 -20 -8 -14 -8 -20 0 -20 8 0 8 -6 0 -20
-8 -14 -8 -20 0 -20 8 0 8 -6 0 -20 -8 -14 -8 -20 0 -20 8 0 8 -6 0 -20 -8
-14 -8 -20 0 -20 8 0 8 -6 0 -20 -8 -14 -8 -20 0 -20 8 0 8 -6 0 -20 -8 -14
-8 -20 0 -20 8 0 8 -6 0 -20 -8 -14 -8 -20 0 -20 7 0 8 -6 1 -18 -7 -13 -7
-22 0 -29 8 -8 7 -13 0 -17 -8 -5 -8 -13 -1 -27 7 -12 7 -19 1 -19 -6 0 -8 -6
-5 -13 2 -7 -19 -51 -47 -97 -29 -47 -57 -95 -63 -107 -6 -13 -14 -23 -18 -23
-5 0 -8 -7 -8 -15 0 -8 -4 -15 -9 -15 -5 0 -11 -8 -15 -17 -3 -10 -15 -31 -26
-48 -11 -16 -23 -38 -26 -47 -4 -10 -10 -18 -14 -18 -5 0 -12 -10 -16 -22 -4
-13 -10 -25 -13 -28 -8 -6 -61 -88 -61 -94 0 -3 -22 -39 -50 -80 -27 -42 -50
-79 -50 -82 0 -4 -11 -21 -23 -38 -13 -17 -26 -36 -28 -41 -4 -12 -387 -628
-428 -689 -14 -21 -30 -47 -36 -57 -12 -23 -150 -244 -187 -302 -15 -23 -33
-53 -40 -67 -7 -14 -15 -27 -18 -30 -3 -3 -10 -14 -17 -25 -53 -90 -118 -191
-125 -193 -4 -2 -8 -8 -8 -13 0 -5 -61 -106 -135 -225 -74 -119 -135 -217
-135 -220 0 -2 -15 -25 -32 -51 -18 -27 -38 -57 -45 -68 -11 -18 -136 -221
-173 -280 -95 -152 -127 -203 -135 -217 -26 -45 -119 -194 -124 -198 -4 -3
-12 -16 -19 -30 -6 -14 -29 -52 -51 -85 -21 -33 -61 -96 -87 -139 -27 -44 -59
-95 -72 -115 -12 -20 -25 -44 -28 -53 -4 -10 -10 -18 -14 -18 -5 0 -11 -14
-15 -30 -4 -17 -10 -30 -13 -30 -12 0 -82 -176 -97 -240 0 -3 -4 -14 -8 -25
-6 -20 -16 -64 -21 -100 -2 -11 -4 -20 -6 -20 -1 0 -5 -25 -8 -55 -13 -115 -4
-422 13 -450 2 -4 7 -22 10 -41 8 -45 43 -165 62 -209 54 -131 149 -297 212
-372 38 -46 49 -58 87 -100 22 -23 69 -68 104 -98 36 -30 67 -58 68 -62 2 -5
10 -8 18 -8 8 0 14 -4 14 -10 0 -5 7 -10 15 -10 8 0 15 -3 15 -7 0 -15 219
-133 245 -133 8 0 15 -4 15 -10 0 -5 8 -10 18 -10 9 0 40 -9 68 -19 28 -11 62
-22 75 -24 13 -2 31 -7 39 -10 8 -4 58 -13 110 -21 81 -12 565 -14 3305 -12
1766 1 3226 5 3245 9 40 9 76 16 105 21 35 6 79 17 100 26 11 4 49 18 85 31
36 12 88 34 115 48 28 14 53 24 58 23 4 -1 7 2 7 8 0 5 5 10 10 10 12 0 94 52
98 63 2 4 8 7 13 7 26 0 216 172 288 260 11 14 25 30 31 37 28 33 120 179 120
190 0 7 5 13 10 13 6 0 9 3 8 8 -1 4 10 30 25 58 14 28 23 54 20 58 -4 3 -1 6
6 6 7 0 9 5 6 10 -3 6 -2 10 3 10 5 0 9 6 10 13 0 6 14 55 30 107 16 52 32
113 36 135 3 22 8 51 12 65 17 71 11 349 -10 464 -25 134 -94 322 -156 426
-66 111 -146 236 -153 241 -5 3 -9 10 -9 15 -1 5 -12 27 -26 49 -14 22 -35 56
-47 75 -12 19 -22 39 -23 44 0 5 -4 12 -9 15 -10 7 -72 104 -92 144 -8 15 -18
27 -23 27 -4 0 -8 5 -8 11 0 6 -33 63 -72 126 -40 63 -78 122 -83 132 -6 10
-42 68 -80 130 -39 61 -74 120 -80 131 -5 11 -13 20 -17 20 -5 0 -8 4 -8 10 0
5 -35 65 -77 133 -43 68 -83 132 -90 143 -6 10 -58 93 -115 183 -57 91 -105
169 -107 174 -2 5 -22 37 -45 71 -23 33 -47 72 -54 86 -7 14 -25 45 -41 70
-38 59 -93 148 -106 171 -5 11 -13 19 -17 19 -5 0 -8 4 -8 10 0 5 -33 62 -72
125 -40 64 -82 130 -93 148 -11 18 -39 64 -63 103 -24 38 -48 78 -55 89 -7 11
-14 22 -17 25 -3 3 -12 17 -20 31 -19 33 -161 261 -256 412 -41 66 -74 123
-74 128 0 5 -4 9 -8 9 -5 0 -17 18 -28 40 -10 22 -22 40 -26 40 -5 0 -8 4 -8
9 0 5 -27 51 -60 102 -33 52 -65 103 -70 114 -6 11 -24 40 -40 65 -16 25 -37
60 -47 78 -9 17 -20 32 -25 32 -4 0 -8 9 -8 20 0 11 -4 20 -9 20 -5 0 -11 11
-13 25 -3 14 -2 25 3 25 4 0 4 14 -1 30 -5 17 -6 30 -2 30 9 0 8 58 -1 66 -3
4 -2 14 3 23 5 10 5 23 0 31 -5 8 -5 21 1 31 6 11 5 20 -1 24 -6 4 -6 15 0 30
6 16 6 25 -1 25 -6 0 -6 6 0 18 6 11 6 24 0 34 -6 11 -6 19 1 23 6 4 7 13 1
23 -5 9 -10 19 -12 22 -1 3 3 15 10 28 8 15 8 22 1 22 -8 0 -8 6 0 20 8 14 8
20 0 20 -8 0 -8 6 0 20 8 14 8 20 0 20 -8 0 -8 6 0 20 8 14 8 20 0 20 -8 0 -8
6 0 20 8 14 8 20 0 20 -8 0 -8 6 0 20 8 14 8 20 0 20 -8 0 -8 6 0 20 8 14 8
20 0 20 -8 0 -8 6 0 20 8 14 8 20 0 20 -8 0 -8 6 0 20 8 14 8 20 0 20 -8 0 -8
6 0 20 8 14 8 20 0 20 -8 0 -8 6 0 20 8 14 8 20 0 20 -8 0 -8 6 0 20 8 14 8
20 0 20 -8 0 -8 6 0 20 8 14 8 20 0 20 -8 0 -8 6 0 20 8 14 8 20 0 20 -8 0 -8
6 0 20 8 14 8 20 0 20 -7 0 -7 7 1 23 7 12 11 24 9 27 -12 22 -18 50 -10 50 6
0 6 9 0 25 -6 15 -6 26 0 30 6 4 7 13 1 23 -6 11 -6 24 0 35 7 11 7 17 0 17
-6 0 -6 11 -1 30 5 19 5 30 -1 30 -6 0 -6 7 1 19 7 13 7 22 0 26 -7 4 -7 12 0
25 7 13 7 21 0 25 -6 4 -7 13 -1 24 6 10 6 23 1 31 -5 8 -5 21 1 31 6 11 5 20
-1 24 -7 4 -7 12 0 25 7 13 7 21 0 25 -7 4 -7 13 0 26 7 12 7 19 1 19 -6 0 -6
11 -1 30 5 17 5 30 0 30 -5 0 -5 13 0 30 5 17 5 30 0 30 -5 0 -5 13 0 30 5 19
5 30 -1 30 -6 0 -6 7 1 19 7 13 7 22 0 26 -7 4 -7 12 0 25 7 13 7 21 0 25 -6
4 -7 13 -1 24 6 10 6 23 1 31 -5 8 -5 21 1 31 6 11 5 20 -1 24 -7 4 -7 12 0
25 7 13 7 21 0 25 -7 4 -7 13 0 26 7 12 7 19 1 19 -6 0 -6 11 -1 30 5 19 5 30
-1 30 -6 0 -6 6 0 18 6 11 6 24 0 34 -6 10 -6 19 0 23 7 4 7 15 1 30 -6 16 -6
25 0 25 6 0 5 11 -1 28 -6 15 -11 27 -11 27 -1 0 4 10 11 23 8 15 8 22 1 22
-8 0 -8 6 0 20 8 14 8 20 0 20 -8 0 -8 6 0 20 8 14 8 20 0 20 -8 0 -8 6 0 20
8 14 8 20 0 20 -8 0 -8 6 0 20 8 14 8 20 0 20 -8 0 -8 6 0 20 8 14 8 20 0 20
-8 0 -8 6 0 20 8 14 8 20 0 20 -8 0 -8 6 0 20 8 14 8 20 0 20 -8 0 -8 6 0 20
8 14 8 20 0 20 -8 0 -8 6 0 20 8 14 8 20 0 20 -8 0 -8 6 0 20 8 14 8 20 0 20
-7 0 -8 6 -1 18 7 13 7 22 0 29 -8 8 -7 13 0 17 8 5 8 13 1 27 -7 12 -7 19 -1
19 7 0 7 9 2 23 -17 45 13 80 59 67 16 -4 31 -6 34 -2 9 8 66 8 66 -1 0 -5 4
-6 9 -2 5 3 31 8 57 11 145 17 286 117 359 255 20 38 33 69 30 69 -3 0 -1 9 5
20 9 18 17 78 23 195 1 17 -1 40 -5 53 -4 12 -3 22 2 22 5 0 5 12 0 30 -5 17
-5 30 0 30 5 0 5 13 0 30 -5 18 -5 30 0 30 6 0 6 10 0 25 -6 17 -6 25 1 25 6
0 7 5 4 11 -4 5 -9 33 -11 61 -8 96 -68 213 -148 290 -51 49 -147 100 -221
117 -11 3 -992 6 -2180 7 -1970 1 -2165 0 -2215 -15z m1670 -1263 c0 8 134 7
147 -1 5 -3 15 -2 22 3 8 4 26 4 41 0 15 -4 33 -4 40 0 7 4 26 4 41 0 16 -5
29 -6 29 -2 0 4 33 6 72 4 40 -1 80 -2 88 -2 8 0 41 0 72 1 32 0 62 -2 68 -6
5 -3 10 -3 10 2 0 4 29 8 65 8 36 0 65 -3 65 -7 0 -4 12 -3 28 1 15 5 37 5 48
1 11 -5 27 -5 34 0 7 4 26 4 41 0 16 -5 29 -6 29 -2 0 8 139 7 147 -1 3 -3 15
-2 27 2 11 5 30 5 42 1 l21 -8 0 -1609 c1 -884 4 -1630 7 -1658 9 -77 27 -145
38 -145 5 0 7 -4 4 -9 -6 -9 32 -86 65 -132 10 -15 19 -32 19 -38 0 -6 5 -11
10 -11 6 0 10 -7 10 -15 0 -8 5 -15 10 -15 6 0 10 -4 10 -10 0 -9 71 -126 129
-214 14 -21 30 -47 36 -57 5 -10 44 -72 85 -139 41 -67 80 -129 85 -138 11
-19 73 -118 93 -148 6 -10 20 -34 29 -51 9 -18 20 -33 25 -33 4 0 8 -4 8 -10
0 -5 26 -52 59 -102 32 -51 111 -178 176 -283 65 -104 130 -210 146 -234 16
-25 29 -48 29 -52 0 -9 -37 -19 -44 -11 -9 8 -66 8 -66 0 0 -4 -10 -4 -22 1
-13 4 -35 5 -50 0 -15 -4 -30 -4 -33 1 -3 5 -19 5 -35 0 -17 -5 -30 -6 -30 -2
0 4 -16 7 -35 7 -19 0 -35 -3 -35 -7 0 -4 -13 -3 -29 2 -15 4 -34 4 -41 0 -7
-5 -23 -5 -34 0 -11 4 -33 4 -48 -1 -16 -4 -28 -4 -28 0 0 5 -15 5 -32 2 -18
-4 -48 -4 -66 0 -17 4 -34 3 -37 -2 -3 -4 -16 -4 -28 0 -12 5 -34 5 -49 0 -16
-4 -28 -4 -28 0 0 5 -15 5 -32 2 -18 -4 -48 -4 -66 0 -17 4 -34 3 -37 -2 -3
-4 -16 -4 -28 0 -12 5 -34 5 -49 0 -16 -4 -28 -4 -28 0 0 5 -15 5 -32 2 -18
-4 -48 -4 -66 0 -17 4 -34 3 -37 -2 -3 -4 -16 -4 -28 0 -12 5 -34 5 -49 0 -16
-4 -28 -4 -28 0 0 5 -15 5 -32 2 -18 -4 -48 -4 -66 0 -17 4 -34 3 -37 -2 -3
-4 -16 -4 -28 0 -12 5 -34 5 -49 0 -16 -4 -28 -5 -28 -1 0 4 -29 7 -65 7 -36
0 -65 -3 -65 -7 0 -3 -12 -3 -27 1 -16 4 -40 5 -54 0 -15 -4 -32 -3 -39 1 -7
5 -24 4 -36 0 -13 -5 -26 -5 -29 -1 -3 5 -20 6 -38 2 -18 -5 -41 -5 -52 -1
-11 4 -32 4 -47 -1 -16 -4 -28 -4 -28 0 0 5 -15 5 -32 2 -18 -4 -48 -4 -66 0
-17 4 -34 3 -37 -2 -3 -4 -16 -4 -28 0 -12 5 -34 5 -49 0 -16 -4 -28 -4 -28 0
0 5 -15 5 -32 2 -18 -4 -48 -4 -66 0 -17 4 -34 3 -37 -2 -3 -4 -16 -4 -28 0
-12 5 -34 5 -49 0 -16 -4 -28 -4 -28 1 0 4 -15 5 -32 1 -18 -4 -48 -4 -66 0
-18 3 -35 3 -37 -2 -3 -4 -16 -4 -28 0 -12 5 -34 5 -49 0 -16 -4 -28 -4 -28 0
0 5 -15 5 -32 2 -18 -4 -48 -4 -66 0 -17 4 -34 3 -37 -2 -3 -4 -16 -4 -28 0
-12 5 -34 5 -49 0 -16 -4 -28 -5 -28 -1 0 8 -62 8 -76 0 -5 -3 -18 -2 -29 2
-11 4 -30 4 -42 -1 -13 -5 -23 -5 -23 0 0 4 -20 5 -45 1 -25 -4 -45 -4 -45 -1
0 7 -75 5 -87 -2 -5 -3 -15 -2 -22 3 -8 4 -27 4 -42 0 -16 -5 -29 -5 -29 -1 0
5 -11 6 -25 3 -31 -5 -33 15 -7 49 16 21 38 55 115 184 7 11 21 33 32 50 25
36 42 65 51 85 4 8 10 17 14 20 3 3 26 39 50 80 25 41 48 77 52 78 5 2 8 8 8
13 0 5 24 47 53 92 28 46 57 92 64 103 7 10 27 44 45 74 18 30 36 60 40 65 5
6 41 62 80 125 189 308 313 505 320 508 5 2 8 10 8 17 0 8 6 20 13 27 11 11
59 102 63 118 0 3 3 12 7 20 18 44 29 115 33 205 5 108 5 104 1 185 -1 30 2
61 7 68 5 7 5 12 0 12 -5 0 -8 35 -6 78 3 88 3 88 -1 162 -1 30 2 61 7 68 5 6
5 12 0 12 -10 0 -10 97 -1 107 4 3 3 11 0 17 -10 15 -10 106 0 106 5 0 5 5 1
12 -11 17 -11 108 -1 108 5 0 5 5 1 12 -11 17 -11 108 -1 108 5 0 5 5 1 12
-11 17 -11 108 -1 108 5 0 5 5 1 12 -11 17 -11 108 0 108 5 0 5 5 0 13 -5 6
-8 31 -7 55 2 23 3 49 3 57 0 8 0 35 0 60 0 25 0 52 0 60 0 8 0 35 0 60 0 25
0 51 0 58 0 6 -1 37 -3 67 -1 30 1 61 6 68 5 6 6 12 1 12 -5 0 -8 48 -6 107 3
125 3 121 -1 193 -1 30 2 61 7 68 5 7 5 12 0 12 -5 0 -8 35 -6 78 3 88 3 88
-1 162 -1 30 2 61 7 68 5 6 5 12 0 12 -10 0 -10 92 0 109 4 6 4 11 -1 11 -10
0 -10 91 1 108 4 7 4 12 -1 12 -10 0 -10 91 1 108 4 7 4 12 -1 12 -10 0 -10
91 1 108 4 7 4 12 -1 12 -10 0 -10 91 1 108 4 7 4 12 -1 12 -4 0 -8 23 -8 50
0 32 4 49 11 46 6 -2 17 -1 24 4 7 4 26 4 41 0 16 -5 29 -6 29 -2z"/>
</g>
</svg>
